<svg width="41" height="41" viewBox="0 0 41 41" fill="none" xmlns="http://www.w3.org/2000/svg">
<path d="M3.96378 4.18677H6.86378C8.66378 4.18677 10.0804 5.73677 9.93044 7.5201L8.54711 24.1201C8.4931 24.7632 8.57325 25.4105 8.7825 26.021C8.99175 26.6315 9.32552 27.1919 9.76268 27.6667C10.1998 28.1414 10.7308 28.5202 11.322 28.779C11.9132 29.0378 12.5517 29.171 13.1971 29.1701H30.9471C33.3471 29.1701 35.4471 27.2034 35.6304 24.8201L36.5304 12.3201C36.7304 9.55343 34.6304 7.30343 31.8471 7.30343H10.3304M15.6304 14.1868H35.6304M27.7138 37.5201C28.2663 37.5201 28.7962 37.3006 29.1869 36.9099C29.5776 36.5192 29.7971 35.9893 29.7971 35.4368C29.7971 34.8842 29.5776 34.3543 29.1869 33.9636C28.7962 33.5729 28.2663 33.3534 27.7138 33.3534C27.1612 33.3534 26.6313 33.5729 26.2406 33.9636C25.8499 34.3543 25.6304 34.8842 25.6304 35.4368C25.6304 35.9893 25.8499 36.5192 26.2406 36.9099C26.6313 37.3006 27.1612 37.5201 27.7138 37.5201ZM14.3804 37.5201C14.933 37.5201 15.4629 37.3006 15.8536 36.9099C16.2443 36.5192 16.4638 35.9893 16.4638 35.4368C16.4638 34.8842 16.2443 34.3543 15.8536 33.9636C15.4629 33.5729 14.933 33.3534 14.3804 33.3534C13.8279 33.3534 13.298 33.5729 12.9073 33.9636C12.5166 34.3543 12.2971 34.8842 12.2971 35.4368C12.2971 35.9893 12.5166 36.5192 12.9073 36.9099C13.298 37.3006 13.8279 37.5201 14.3804 37.5201Z" stroke="#D2F200" stroke-width="1.5" stroke-miterlimit="10" stroke-linecap="round" stroke-linejoin="round"/>
</svg>
