<svg width="28" height="28" viewBox="0 0 28 28" fill="none" xmlns="http://www.w3.org/2000/svg">
<path d="M16.7233 2.15707L19.1064 6.9626C19.4313 7.63155 20.2979 8.2732 21.0291 8.39607L25.3484 9.11963C28.1106 9.5838 28.7605 11.6043 26.7701 13.5975L23.4121 16.9832C22.8434 17.5566 22.532 18.6624 22.708 19.4542L23.6694 23.6454C24.4276 26.9629 22.681 28.2462 19.7698 26.5124L15.7213 24.0959C14.9901 23.6591 13.7851 23.6591 13.0404 24.0959L8.99185 26.5124C6.09425 28.2462 4.33403 26.9492 5.09228 23.6454L6.05363 19.4542C6.22965 18.6624 5.91823 17.5566 5.34954 16.9832L1.99158 13.5975C0.0147138 11.6043 0.651102 9.5838 3.4133 9.11963L7.73261 8.39607C8.45024 8.2732 9.31681 7.63155 9.64178 6.9626L12.0248 2.15707C13.3247 -0.45047 15.437 -0.45047 16.7233 2.15707Z" fill="#D2F200"/>
</svg>
