<svg width="24" height="24" viewBox="0 0 24 24" fill="none" xmlns="http://www.w3.org/2000/svg">
<path d="M18.623 6.43872L19.7669 8.74537C19.9229 9.06647 20.3388 9.37446 20.6898 9.43343L22.763 9.78074C24.0889 10.0035 24.4009 10.9734 23.4455 11.9301L21.8336 13.5553C21.5607 13.8305 21.4112 14.3613 21.4957 14.7414L21.9571 16.7531C22.3211 18.3455 21.4827 18.9615 20.0853 18.1293L18.142 16.9694C17.7911 16.7597 17.2127 16.7597 16.8552 16.9694L14.9119 18.1293C13.5211 18.9615 12.6762 18.3389 13.0401 16.7531L13.5016 14.7414C13.5861 14.3613 13.4366 13.8305 13.1636 13.5553L11.5518 11.9301C10.6029 10.9734 10.9083 10.0035 12.2342 9.78074L14.3075 9.43343C14.6519 9.37446 15.0679 9.06647 15.2239 8.74537L16.3677 6.43872C16.9917 5.18709 18.0056 5.18709 18.623 6.43872Z" fill="#D2F200"/>
</svg>
